
<?xml version="1.0" encoding="UTF-8"?>
<svg xmlns="http://www.w3.org/2000/svg" xmlns:xlink="http://www.w3.org/1999/xlink" width="100vh" height="100vh" style="background:rgba(5,1,17,0.9)">
<style>

.container {
  position: fixed;
  top: 0;
  bottom: 0;
  left: 0;
  right: 0;
  margin: auto;
  display: flex;
  justify-content: center;
  align-items: center;
  transform-style: preserve-3d;
  transform: rotatex(-5deg) rotateY(-45deg);
  animation: move 20s ease-in-out infinite;
}

.wave {
  font-family: var(--fontFamily);
  position: absolute;
  font-size: 15rem;
  transform-style: preserve-3d;
  letter-spacing: 3rem;
  font-weight: 900;
}
.wave:nth-child(1) {
  transform: translatez(-20px) translateY(-40px) rotateX(15deg);
  animation: move-1 ease-in-out 2s infinite;
  animation-delay: 0.1s;
  color: #ff3900;
  text-shadow: 0px 0px #330b00;
}
.wave:nth-child(2) {
  transform: translatez(-40px) translateY(-40px) rotateX(15deg);
  animation: move-2 ease-in-out 2s infinite;
  animation-delay: 0.2s;
  color: #ff7300;
  text-shadow: 0px 0px #331700;
}
.wave:nth-child(3) {
  transform: translatez(-60px) translateY(-40px) rotateX(15deg);
  animation: move-3 ease-in-out 2s infinite;
  animation-delay: 0.3s;
  color: #ffac00;
  text-shadow: 0px 0px #332200;
}
.wave:nth-child(4) {
  transform: translatez(-80px) translateY(-40px) rotateX(15deg);
  animation: move-4 ease-in-out 2s infinite;
  animation-delay: 0.4s;
  color: #ffe600;
  text-shadow: 0px 0px #332e00;
}
.wave:nth-child(5) {
  transform: translatez(-100px) translateY(-40px) rotateX(15deg);
  animation: move-5 ease-in-out 2s infinite;
  animation-delay: 0.5s;
  color: #dfff00;
  text-shadow: 0px 0px #2d3300;
}
.wave:nth-child(6) {
  transform: translatez(-120px) translateY(-40px) rotateX(15deg);
  animation: move-6 ease-in-out 2s infinite;
  animation-delay: 0.6s;
  color: #a6ff00;
  text-shadow: 0px 0px #213300;
}
.wave:nth-child(7) {
  transform: translatez(-140px) translateY(-40px) rotateX(15deg);
  animation: move-7 ease-in-out 2s infinite;
  animation-delay: 0.7s;
  color: #6cff00;
  text-shadow: 0px 0px #163300;
}
.wave:nth-child(8) {
  transform: translatez(-160px) translateY(-40px) rotateX(15deg);
  animation: move-8 ease-in-out 2s infinite;
  animation-delay: 0.8s;
  color: #33ff00;
  text-shadow: 0px 0px #0a3300;
}
.wave:nth-child(9) {
  transform: translatez(-180px) translateY(-40px) rotateX(15deg);
  animation: move-9 ease-in-out 2s infinite;
  animation-delay: 0.9s;
  color: #00ff06;
  text-shadow: 0px 0px #003301;
}
.wave:nth-child(10) {
  transform: translatez(-200px) translateY(-40px) rotateX(15deg);
  animation: move-10 ease-in-out 2s infinite;
  animation-delay: 1s;
  color: #00ff40;
  text-shadow: 0px 0px #00330d;
}
.wave:nth-child(11) {
  transform: translatez(-220px) translateY(-40px) rotateX(15deg);
  animation: move-11 ease-in-out 2s infinite;
  animation-delay: 1.1s;
  color: #00ff79;
  text-shadow: 0px 0px #003318;
}
.wave:nth-child(12) {
  transform: translatez(-240px) translateY(-40px) rotateX(15deg);
  animation: move-12 ease-in-out 2s infinite;
  animation-delay: 1.2s;
  color: #00ffb3;
  text-shadow: 0px 0px #003324;
}
.wave:nth-child(13) {
  transform: translatez(-260px) translateY(-40px) rotateX(15deg);
  animation: move-13 ease-in-out 2s infinite;
  animation-delay: 1.3s;
  color: #00ffec;
  text-shadow: 0px 0px #00332f;
}
.wave:nth-child(14) {
  transform: translatez(-280px) translateY(-40px) rotateX(15deg);
  animation: move-14 ease-in-out 2s infinite;
  animation-delay: 1.4s;
  color: #00d9ff;
  text-shadow: 0px 0px #002b33;
}
.wave:nth-child(15) {
  transform: translatez(-300px) translateY(-40px) rotateX(15deg);
  animation: move-15 ease-in-out 2s infinite;
  animation-delay: 1.5s;
  color: #009fff;
  text-shadow: 0px 0px #002033;
}
.wave:nth-child(16) {
  transform: translatez(-320px) translateY(-40px) rotateX(15deg);
  animation: move-16 ease-in-out 2s infinite;
  animation-delay: 1.6s;
  color: #0066ff;
  text-shadow: 0px 0px #001433;
}
.wave:nth-child(17) {
  transform: translatez(-340px) translateY(-40px) rotateX(15deg);
  animation: move-17 ease-in-out 2s infinite;
  animation-delay: 1.7s;
  color: #002dff;
  text-shadow: 0px 0px #000933;
}
.wave:nth-child(18) {
  transform: translatez(-360px) translateY(-40px) rotateX(15deg);
  animation: move-18 ease-in-out 2s infinite;
  animation-delay: 1.8s;
  color: #0d00ff;
  text-shadow: 0px 0px #030033;
}
.wave:nth-child(19) {
  transform: translatez(-380px) translateY(-40px) rotateX(15deg);
  animation: move-19 ease-in-out 2s infinite;
  animation-delay: 1.9s;
  color: #4600ff;
  text-shadow: 0px 0px #0e0033;
}
.wave:nth-child(20) {
  transform: translatez(-400px) translateY(-40px) rotateX(15deg);
  animation: move-20 ease-in-out 2s infinite;
  animation-delay: 2s;
  color: #8000ff;
  text-shadow: 0px 0px #1a0033;
}

@keyframes move-1 {
  0%,
    100% {
    transform: translatez(-20px) translateY(-40px) rotateX(15deg);
  }
  50% {
    transform: translatez(-20px) translateY(40px) rotateX(-15deg);
  }
}
@keyframes move-2 {
  0%,
    100% {
    transform: translatez(-40px) translateY(-40px) rotateX(15deg);
  }
  50% {
    transform: translatez(-40px) translateY(40px) rotateX(-15deg);
  }
}
@keyframes move-3 {
  0%,
    100% {
    transform: translatez(-60px) translateY(-40px) rotateX(15deg);
  }
  50% {
    transform: translatez(-60px) translateY(40px) rotateX(-15deg);
  }
}
@keyframes move-4 {
  0%,
    100% {
    transform: translatez(-80px) translateY(-40px) rotateX(15deg);
  }
  50% {
    transform: translatez(-80px) translateY(40px) rotateX(-15deg);
  }
}
@keyframes move-5 {
  0%,
    100% {
    transform: translatez(-100px) translateY(-40px) rotateX(15deg);
  }
  50% {
    transform: translatez(-100px) translateY(40px) rotateX(-15deg);
  }
}
@keyframes move-6 {
  0%,
    100% {
    transform: translatez(-120px) translateY(-40px) rotateX(15deg);
  }
  50% {
    transform: translatez(-120px) translateY(40px) rotateX(-15deg);
  }
}
@keyframes move-7 {
  0%,
    100% {
    transform: translatez(-140px) translateY(-40px) rotateX(15deg);
  }
  50% {
    transform: translatez(-140px) translateY(40px) rotateX(-15deg);
  }
}
@keyframes move-8 {
  0%,
    100% {
    transform: translatez(-160px) translateY(-40px) rotateX(15deg);
  }
  50% {
    transform: translatez(-160px) translateY(40px) rotateX(-15deg);
  }
}
@keyframes move-9 {
  0%,
    100% {
    transform: translatez(-180px) translateY(-40px) rotateX(15deg);
  }
  50% {
    transform: translatez(-180px) translateY(40px) rotateX(-15deg);
  }
}
@keyframes move-10 {
  0%,
    100% {
    transform: translatez(-200px) translateY(-40px) rotateX(15deg);
  }
  50% {
    transform: translatez(-200px) translateY(40px) rotateX(-15deg);
  }
}
@keyframes move-11 {
  0%,
    100% {
    transform: translatez(-220px) translateY(-40px) rotateX(15deg);
  }
  50% {
    transform: translatez(-220px) translateY(40px) rotateX(-15deg);
  }
}
@keyframes move-12 {
  0%,
    100% {
    transform: translatez(-240px) translateY(-40px) rotateX(15deg);
  }
  50% {
    transform: translatez(-240px) translateY(40px) rotateX(-15deg);
  }
}
@keyframes move-13 {
  0%,
    100% {
    transform: translatez(-260px) translateY(-40px) rotateX(15deg);
  }
  50% {
    transform: translatez(-260px) translateY(40px) rotateX(-15deg);
  }
}
@keyframes move-14 {
  0%,
    100% {
    transform: translatez(-280px) translateY(-40px) rotateX(15deg);
  }
  50% {
    transform: translatez(-280px) translateY(40px) rotateX(-15deg);
  }
}
@keyframes move-15 {
  0%,
    100% {
    transform: translatez(-300px) translateY(-40px) rotateX(15deg);
  }
  50% {
    transform: translatez(-300px) translateY(40px) rotateX(-15deg);
  }
}
@keyframes move-16 {
  0%,
    100% {
    transform: translatez(-320px) translateY(-40px) rotateX(15deg);
  }
  50% {
    transform: translatez(-320px) translateY(40px) rotateX(-15deg);
  }
}
@keyframes move-17 {
  0%,
    100% {
    transform: translatez(-340px) translateY(-40px) rotateX(15deg);
  }
  50% {
    transform: translatez(-340px) translateY(40px) rotateX(-15deg);
  }
}
@keyframes move-18 {
  0%,
    100% {
    transform: translatez(-360px) translateY(-40px) rotateX(15deg);
  }
  50% {
    transform: translatez(-360px) translateY(40px) rotateX(-15deg);
  }
}
@keyframes move-19 {
  0%,
    100% {
    transform: translatez(-380px) translateY(-40px) rotateX(15deg);
  }
  50% {
    transform: translatez(-380px) translateY(40px) rotateX(-15deg);
  }
}
@keyframes move-20 {
  0%,
    100% {
    transform: translatez(-400px) translateY(-40px) rotateX(15deg);
  }
  50% {
    transform: translatez(-400px) translateY(40px) rotateX(-15deg);
  }
}
@keyframes move {
  0%,
  100% {
    transform: rotatex(-5deg) rotateY(-45deg) rotate(-36deg);
  }
  50% {
    transform: rotatex(-5deg) rotateY(-45deg) rotate(36deg);
  }
}

.glitch{
-webkit-transform: skewX(0deg) scaleY(1);
transform: skewX(0deg) scaleY(1);
-webkit-animation: clock-bag 3s linear infinite;
animation: clock-bag 3s linear infinite;
	background="rgba(30,0,30,0.3)" 
}

    @keyframes clock-bag {
        0% {
            -webkit-transform: translate(2px, 1px);
            transform: translate(2px, 1px);
        }
        2% {
            -webkit-transform: translate(2px, 4px);
            transform: translate(2px, 4px);
        }
        4% {
            -webkit-transform: translate(5px, 1px);
            transform: translate(5px, 1px);
        }
        6% {
            -webkit-transform: translate(1px, 3px);
            transform: translate(1px, 3px);
        }
        8% {
            -webkit-transform: translate(2px, 4px);
            transform: translate(2px, 4px);
        }
        10% {
            -webkit-transform: translate(3px, 5px);
            transform: translate(3px, 5px);
        }
        12% {
            -webkit-transform: translate(2px, 5px);
            transform: translate(2px, 5px);
        }
        14.000000000000002% {
            -webkit-transform: translate(1px, 3px);
            transform: translate(1px, 3px);
        }
        16% {
            -webkit-transform: translate(5px, 4px);
            transform: translate(5px, 4px);
        }
        18% {
            -webkit-transform: translate(4px, 3px);
            transform: translate(4px, 3px);
        }
        20% {
            -webkit-transform: translate(4px, 2px);
            transform: translate(4px, 2px);
        }
        22% {
            -webkit-transform: translate(3px, 2px);
            transform: translate(3px, 2px);
        }
        24% {
            -webkit-transform: translate(4px, 3px);
            transform: translate(4px, 3px);
        }
        26% {
            -webkit-transform: translate(3px, 1px);
            transform: translate(3px, 1px);
        }
        28.000000000000004% {
            -webkit-transform: translate(4px, 4px);
            transform: translate(4px, 4px);
        }
        30% {
            -webkit-transform: translate(2px, 3px);
            transform: translate(2px, 3px);
        }
        32% {
            -webkit-transform: translate(1px, 1px);
            transform: translate(1px, 1px);
        }
        34% {
            -webkit-transform: translate(5px, 3px);
            transform: translate(5px, 3px);
        }
        36% {
            -webkit-transform: translate(2px, 1px);
            transform: translate(2px, 1px);
        }
        38% {
            -webkit-transform: translate(4px, 5px);
            transform: translate(4px, 5px);
        }
        40% {
            -webkit-transform: translate(4px, 2px);
            transform: translate(4px, 2px);
        }
        42% {
            -webkit-transform: translate(5px, 5px);
            transform: translate(5px, 5px);
        }
        44% {
            -webkit-transform: translate(5px, 2px);
            transform: translate(5px, 2px);
        }
        46.00000000000001% {
            -webkit-transform: translate(5px, 4px);
            transform: translate(5px, 4px);
        }
        48% {
            -webkit-transform: translate(2px, 1px);
            transform: translate(2px, 1px);
        }
        50% {
            -webkit-transform: translate(2px, 4px);
            transform: translate(2px, 4px);
        }
        52% {
            -webkit-transform: translate(2px, 3px);
            transform: translate(2px, 3px);
        }
        54% {
            -webkit-transform: translate(5px, 4px);
            transform: translate(5px, 4px);
        }
        56.00000000000001% {
            -webkit-transform: translate(2px, 3px);
            transform: translate(2px, 3px);
        }
        58% {
            -webkit-transform: translate(4px, 2px);
            transform: translate(4px, 2px);
        }
        60% {
            -webkit-transform: translate(2px, 1px);
            transform: translate(2px, 1px);
        }
        62% {
            -webkit-transform: translate(1px, 2px);
            transform: translate(1px, 2px);
        }
        64% {
            -webkit-transform: translate(2px, 5px);
            transform: translate(2px, 5px);
        }
        66% {
            -webkit-transform: translate(4px, 3px);
            transform: translate(4px, 3px);
        }
        68% {
            -webkit-transform: translate(4px, 2px);
            transform: translate(4px, 2px);
        }
        70.00000000000001% {
            -webkit-transform: translate(4px, 3px);
            transform: translate(4px, 3px);
        }
        72% {
            -webkit-transform: translate(3px, 4px);
            transform: translate(3px, 4px);
        }
        74% {
            -webkit-transform: translate(3px, 3px);
            transform: translate(3px, 3px);
        }
        76% {
            -webkit-transform: translate(1px, 1px);
            transform: translate(1px, 1px);
        }
        78% {
            -webkit-transform: translate(5px, 3px);
            transform: translate(5px, 3px);
        }
        80% {
            -webkit-transform: translate(5px, 1px);
            transform: translate(5px, 1px);
        }
        82.00000000000001% {
            -webkit-transform: translate(3px, 2px);
            transform: translate(3px, 2px);
        }
        84% {
            -webkit-transform: translate(3px, 3px);
            transform: translate(3px, 3px);
        }
        86% {
            -webkit-transform: translate(4px, 3px);
            transform: translate(4px, 3px);
        }
        88% {
            -webkit-transform: translate(5px, 1px);
            transform: translate(5px, 1px);
        }
        90% {
            -webkit-transform: translate(2px, 4px);
            transform: translate(2px, 4px);
        }
        92.00000000000001% {
            -webkit-transform: translate(3px, 3px);
            transform: translate(3px, 3px);
        }
        94% {
            -webkit-transform: translate(3px, 1px);
            transform: translate(3px, 1px);
        }
        96% {
            -webkit-transform: translate(3px, 1px);
            transform: translate(3px, 1px);
        }
        98% {
            -webkit-transform: translate(4px, 1px);
            transform: translate(4px, 1px);
        }
        100% {
            -webkit-transform: translate(4px, 2px);
            transform: translate(4px, 2px);
        }
        1% {
            -webkit-transform: scaleY(1) skewX(0deg);
            transform: scaleY(1) skewX(0deg);
        }
        1.5% {
            -webkit-transform: scaleY(3) skewX(-60deg);
            transform: scaleY(3) skewX(-60deg);
        }
        2% {
            -webkit-transform: scaleY(1) skewX(0deg);
            transform: scaleY(1) skewX(0deg);
        }
        51% {
            -webkit-transform: scaleX(1) scaleY(1) skewX(0deg);
            transform: scaleX(1) scaleY(1) skewX(0deg);
        }
        52% {
            -webkit-transform: scaleX(1.5) scaleY(0.2) skewX(80deg);
            transform: scaleX(1.5) scaleY(0.2) skewX(80deg);
        }
        53% {
            -webkit-transform: scaleX(1) scaleY(1) skewX(0deg);
            transform: scaleX(1) scaleY(1) skewX(0deg);
        }
    }
    </style>
	<g transform="translate(-217.125,-92.125)">
		<circle r="155" cy="250" stroke="rgba(255,255,255,0)" cx="375" stroke-miterlimit="10" stroke-width="5.75" fill="rgba(60,0,60,0)"/>
		<g>
			<circle class="glitch" r="100" cy="250" stroke="rgba(255,255,255,0.9)" cx="375" stroke-miterlimit="1.5" stroke-width="1.5" fill="none"/>
			<defs>
				<circle id="a" cy="250" cx="375" r="100"/>
			</defs>
			<clipPath id="b">
				<use overflow="visible" xlink:href="#a"/>
			</clipPath>
			<g clip-path="url(#b)" class="glitch" stroke="rgba(255,255,255,0.9)" stroke-miterlimit="1.5" stroke-width="1.5" fill="none">
				<ellipse rx="62.5" cy="250" ry="100" cx="375"/>
				<ellipse rx="26.5" cy="250" ry="100" cx="375"/>
				<circle r="130" cy="444" cx="375"/>
				<circle r="260" cy="538" cx="375"/>
				<circle r="130" cy="56" cx="375"/>
				<circle r="260" cy="-38" cx="375"/>
				<line y2="250" x1="275" x2="475" y1="250"/>
				<line y2="350" x1="375" x2="375" y1="150"/>
			</g>
		</g>
		<g>
			<g fill="rgba(238, 23, 128, 0.5)">
				<path d="M285.3,361.56c2.42,1.82,9.79,6.26,20.4,6.26,22.82,0,25.55-14.14,54.53-14.14,22.93,0,43.63,18.48,53.52,27.87l-6.26,5.45c-3.63-5.05-23.83-29.28-44.23-29.28-13.02,0-22.92,19.19-46.45,19.19-17.87,0-27.57-9.89-31.51-15.35z"/>
				<path d="M342.28,353.74c-10.2-0.25-25.04,7.89-39.98,7.57-11.92-0.25-33.12-6.41-41.05-24.69,4.8,5.35,11.74,12.55,33.17,12.72,13.02,0.1,24.94,3.64,29.23,3.64-5.91-1.51-12.54-3.82-17.87-8.94-5-4.8-10.45-20.55-14.54-25.3,7.42,3.23,21.76,19.69,27.52,24.54,9.42,7.94,13.83,8.08,23.52,10.46z"/>
				<path d="M304.72,346.82c-10.2-2.02-30.97-5.69-35.95-8.89-8.18-5.25-25.85-15.04-29.08-37.16,3.33,8.28,13.33,17.57,27.47,23.13,12.88,5.06,18.38,12.01,25.75,16.16-5.75-4.34-9.7-9.39-12.72-14.74-5.19-9.17-4.44-31.2-9.49-37.56,8.28,7.57,15.26,22.85,17.27,28.78,4.13,12.21,8.37,25.53,16.75,30.28z"/>
				<path d="M276.75,324.71c-5.76-5.96-28.18-16.66-33.53-24.64-5.42-8.07-15.15-15.55-12.52-39.28,0.49,8.91,6.08,17.38,17.17,27.77,8.08,7.57,12.91,18.53,18.56,24.83-4.05-5.96-6.82-12.93-7.96-18.97-1.96-10.35,5.96-28.2,3.23-35.85,5.4,9.83,6.88,26.05,6.87,32.31-0.02,12.9,3.63,28.07,8.18,33.83z"/>
				<path d="M254.83,291.28c-5.35-10.4-19.89-22.72-22.21-35.04-1.8-9.55-5.05-19.9,2.12-37.26-1.52,8.58,0.04,18.37,6.67,30.8,6.56,12.32,5.35,22.52,8.18,27.11-1.48-7.06-1.4-14.55-0.16-20.58,2.12-10.32,13.99-20.17,14.8-30.87,1.21,10.2-2.31,25.48-4.34,31.4-4.65,13.54-6.97,19.99-5.06,34.44z"/>
				<path d="M246.96,254.21c-1.31-12.72-10.2-27.87-9.7-40.19,0.39-9.71,0.88-18.26,13.13-32.52-4.54,8.18-4.44,14.88-2.83,28.88,1.52,13.13-1.35,23.53-0.1,28.78,0.5-10.3,2.72-15.11,6.46-19.99,6.97-9.09,16.76-12.92,19.09-20.4-0.21,8.18-5.91,19.95-9.7,24.94-8.64,11.4-14.94,16.77-16.35,30.5z"/>
				<path d="M250.64,219.4c2.66-12.51-2.01-24.75,1.37-34.66,2.82-8.28,6.86-16.76,20.7-21.01-4.24,2.33-9.88,10.18-10.5,15.86-1.61,14.64-6.54,20.98-6.97,26.36,3.23-8.89,8.47-13.27,13.53-16.77,9.42-6.51,14.34-10.7,17.27-17.26-0.3,8.38-5.35,18.88-12.42,24.03-11.56,8.42-20.2,16.46-22.98,23.45z"/>
				<path d="M300.78,150c-4.75,2.32-19.09,6.26-25.55,13.83-8.65,10.13-8.49,19.19-11.61,24.84,5.35-4.34,15.55-11.71,18.98-16.87,3.44-5.14,9.39-14.63,18.18-21.8z"/>
			</g>
			<g fill="rgba(166, 110, 193, 0.5)">
				<path d="M464.7,361.56c-2.42,1.82-9.79,6.26-20.4,6.26-22.82,0-25.55-14.14-54.53-14.14-22.93,0-43.63,18.48-53.52,27.87l6.26,5.45c3.63-5.05,23.83-29.28,44.23-29.28,13.02,0,22.92,19.19,46.45,19.19,17.87,0,27.57-9.89,31.51-15.35z"/>
				<path d="M407.72,353.74c10.2-0.25,25.04,7.89,39.98,7.57,11.92-0.25,33.12-6.41,41.05-24.69-4.8,5.35-11.74,12.55-33.17,12.72-13.02,0.1-24.94,3.64-29.23,3.64,5.91-1.51,12.54-3.82,17.87-8.94,5-4.8,10.45-20.55,14.54-25.3-7.42,3.23-21.76,19.69-27.52,24.54-9.42,7.94-13.83,8.08-23.52,10.46z"/>
				<path d="M445.28,346.82c10.2-2.02,30.97-5.69,35.95-8.89,8.18-5.25,25.85-15.04,29.08-37.16-3.33,8.28-13.33,17.57-27.47,23.13-12.88,5.06-18.38,12.01-25.75,16.16,5.75-4.34,9.7-9.39,12.72-14.74,5.19-9.17,4.44-31.2,9.49-37.56-8.28,7.57-15.26,22.85-17.27,28.78-4.13,12.21-8.37,25.53-16.75,30.28z"/>
				<path d="M473.25,324.71c5.76-5.96,28.18-16.66,33.53-24.64,5.42-8.07,15.15-15.55,12.52-39.28-0.49,8.91-6.08,17.38-17.17,27.77-8.08,7.57-12.91,18.53-18.56,24.83,4.05-5.96,6.82-12.93,7.96-18.97,1.96-10.35-5.96-28.2-3.23-35.85-5.4,9.83-6.88,26.05-6.87,32.31,0.02,12.9-3.63,28.07-8.18,33.83z"/>
				<path d="M495.17,291.28c5.35-10.4,19.89-22.72,22.21-35.04,1.8-9.55,5.05-19.9-2.12-37.26,1.52,8.58-0.04,18.37-6.67,30.8-6.56,12.32-5.35,22.52-8.18,27.11,1.48-7.06,1.4-14.55,0.16-20.58-2.12-10.32-13.99-20.17-14.8-30.87-1.21,10.2,2.31,25.48,4.34,31.4,4.65,13.54,6.97,19.99,5.06,34.44z"/>
				<path d="M503.04,254.21c1.31-12.72,10.2-27.87,9.7-40.19-0.39-9.71-0.88-18.26-13.13-32.52,4.54,8.18,4.44,14.88,2.83,28.88-1.52,13.13,1.35,23.53,0.1,28.78-0.5-10.3-2.72-15.11-6.46-19.99-6.97-9.09-16.76-12.92-19.09-20.4,0.21,8.18,5.91,19.95,9.7,24.94,8.64,11.4,14.94,16.77,16.35,30.5z"/>
				<path d="M499.36,219.4c-2.66-12.51,2.01-24.75-1.37-34.66-2.82-8.28-6.86-16.76-20.7-21.01,4.24,2.33,9.88,10.18,10.5,15.86,1.61,14.64,6.54,20.98,6.97,26.36-3.23-8.89-8.47-13.27-13.53-16.77-9.42-6.51-14.34-10.7-17.27-17.26,0.3,8.38,5.35,18.88,12.42,24.03,11.56,8.42,20.2,16.46,22.98,23.45z"/>
				<path d="M449.22,150c4.75,2.32,19.09,6.26,25.55,13.83,8.65,10.13,8.49,19.19,11.61,24.84-5.35-4.34-15.55-11.71-18.98-16.87-3.44-5.14-9.39-14.63-18.18-21.8z"/>
			</g>
		</g>
		<g>
			<circle cy="222" cx="375" r="5.25"/>
			<path d="M388.23,197.59c1.17-1.73,1.76-3.62,1.76-5.65,0-4.05-2.91-10.14-13.42-10.14-9.83,0-13.07,5.7-13.07,9.5,0,2.87,1.9,4.62,4.46,4.62,2.19,0,3.95-1.47,3.95-3.69,0-2.61-2.09-4.65-2.09-5.81,0-0.96,1.49-2.4,4.02-2.4,2.09,0,5.91,1.32,5.91,8.31,0,9.41-5.45,8.99-5.45,18.82v0.98h1.4c0.16-2.27,0.58-3.95,1.28-5.04,0.72-1.11,2.21-2.38,4.46-3.79,3.36-2.1,5.62-4,6.79-5.71z"/>
		</g>
		<g>
			<polygon fill="rgba(255,255,255,0.9)" points="394,297,394,245,390,241.5,385.8,239.31,384.45,238.65,378.05,235.5,371.95,235.5,365.55,238.65,364.2,239.31,360,241.5,356,245,356,297"/>
			<path d="M380.63,296.84l-0.35-17.22c-0.17-3.27-0.24-6.53-0.51-9.79-0.71-4.63-2.83-8.94-3.26-13.62,0.55-0.67,1.15-1.28,1.77-1.89,2.65,1.28,3.05,3.86,5.36,5.84-0.6-2.36-2-4.42-2.92-6.66-1.17-2.1-1.89-4.61-4.04-6.02,1.4-0.82,2.93-1.37,4.38-2.08,2.54-1.16,5.29-2.21,7.33-4.14,0.04-0.15,0.04-0.27,0.03-0.39l1.13,0.67c0.4,1.19,0.9,2.33,1.3,3.52,0.17,0.5,0.25,1.02,0.25,1.54,0,0.97-0.28,1.95-0.79,2.79,0.27,1.77,1.16,3.43,1.76,5.12,1,2.53,1.25,5.26,1.38,7.95,0.11,0.67,0.16,1.37,0.16,2.04,0,12.69-8.42,26.57-12.98,32.34zm-24.24-32.34c0-0.67,0.05-1.37,0.16-2.04,0.13-2.69,0.38-5.42,1.38-7.95,0.6-1.69,1.49-3.35,1.76-5.12-0.51-0.84-0.79-1.82-0.79-2.79,0-0.52,0.08-1.04,0.25-1.54,0.4-1.19,0.9-2.33,1.3-3.52l1.13-0.67c-0.01,0.12-0.01,0.24,0.03,0.39,2.04,1.93,4.79,2.98,7.33,4.14,1.45,0.71,2.98,1.26,4.38,2.08-2.15,1.41-2.87,3.92-4.04,6.02-0.92,2.24-2.32,4.3-2.92,6.66,2.31-1.98,2.71-4.56,5.36-5.84,0.62,0.61,1.22,1.22,1.77,1.89-0.43,4.68-2.55,8.99-3.26,13.62-0.27,3.26-0.34,6.52-0.51,9.79l-0.35,17.22c-4.56-5.77-12.98-19.65-12.98-32.34zm60.14,91.7c4.06-2.61,8.38-4.81,12.42-7.45l4.77-3.06c2.4-1.38,4.29-3.38,6.45-5.06,0.4-2.37,0.62-4.75,1.07-7.11v-7.13c-0.34-1.19-0.08-2.43-0.34-3.63-0.24-3.81-0.51-7.65-1.02-11.44-0.96-4.99-0.78-10.09-1.73-15.08-0.28-1.76-1.28-3.28-1.8-4.97,0.57-0.23,1.14-0.48,1.73-0.7-0.71-2.13-1.91-2.14-1.91-3.15,0-1.22,1.37-2.47,2.05-3.56-0.71-0.74-1.71-1.1-2.65-1.48,0.01-0.55,0.03-1.11,0.03-1.66,0-0.67-0.03-1.33-0.15-1.99-0.62-5.15-1.49-10.27-1.95-15.44-0.11-2.76-1.92-5.5-4.67-6.4-6.18-0.21-12.3-1.45-18.29-2.89-4.05-1.02-8.32-2.29-11.17-5.44-1.63-2.12-4.05-3.45-6.14-5.09-2.34-1.67-4.58-3.71-7.52-4.3,0.02,0.05,0.06,0.09,0.09,0.14l0.61,0.68c0.28,0.23,0.55,0.48,0.81,0.73-0.3,0.46-0.66,0.86-1,1.29-5.65-2.98-7.16-3.01-8.91-3.01h-4.62c-1.75,0-3.26,0.03-8.91,3.01-0.34-0.43-0.7-0.83-1-1.29,0.26-0.25,0.53-0.5,0.81-0.73l0.61-0.68c0.03-0.05,0.07-0.09,0.09-0.14-2.94,0.59-5.18,2.63-7.52,4.3-2.09,1.64-4.51,2.97-6.14,5.09-2.85,3.15-7.12,4.42-11.17,5.44-5.99,1.44-12.11,2.68-18.29,2.89-2.75,0.9-4.56,3.64-4.67,6.4-0.46,5.17-1.33,10.29-1.95,15.44-0.12,0.66-0.15,1.32-0.15,1.99,0,0.55,0.02,1.11,0.03,1.66-0.94,0.38-1.94,0.74-2.65,1.48,0.68,1.09,2.05,2.34,2.05,3.56,0,1.01-1.2,1.02-1.91,3.15,0.59,0.22,1.16,0.47,1.73,0.7-0.52,1.69-1.52,3.21-1.8,4.97-0.95,4.99-0.77,10.09-1.73,15.08-0.51,3.79-0.78,7.63-1.02,11.44-0.26,1.2,0,2.44-0.34,3.63v7.13c0.45,2.36,0.67,4.74,1.07,7.11,2.16,1.68,4.05,3.68,6.45,5.06l4.77,3.06c4.04,2.64,8.36,4.84,12.42,7.45l-3.02,41.24c21.01,3.96,30.95,6.27,39.91,7.2,1.56,0.16,3.09,0.28,4.64,0.36,1.55-0.08,3.08-0.2,4.64-0.36,8.96-0.93,18.9-3.24,39.91-7.2l-3.02-41.24z"/>
			<path d="M371.95,235c-3.79,1.22-5.5,2.59-6.4,3.65,2.32-0.73,4.49-1.85,6.89-2.35,0.86-0.17,1.69-0.26,2.56-0.28,0.87,0.02,1.7,0.11,2.56,0.28,2.4,0.5,4.57,1.62,6.89,2.35-0.9-1.06-2.61-2.43-6.4-3.65h-6.1z"/>
		</g>
	</g>
  
<div class="container">
  <div class="wave">meanOs</div>
  <div class="wave">meanOs</div>
  <div class="wave">meanOs</div>
  <div class="wave">meanOs</div>
  <div class="wave">meanOs</div>
  <div class="wave">meanOs</div>
  <div class="wave">meanOs</div>
  <div class="wave">meanOs</div>
  <div class="wave">meanOs</div>
  <div class="wave">meanOs</div>
  <div class="wave">meanOs</div>
  <div class="wave">meanOs</div>
  <div class="wave">meanOs</div>
  <div class="wave">meanOs</div>
  <div class="wave">meanOs</div>
  <div class="wave">meanOs</div>
  <div class="wave">meanOs</div>
  <div class="wave">meanOs</div>
  <div class="wave">meanOs</div>
  <div class="wave">meanOs</div>
</div>
</svg>
